<svg width="41" height="41" viewBox="0 0 41 41" fill="none" xmlns="http://www.w3.org/2000/svg">
<path fill-rule="evenodd" clip-rule="evenodd" d="M8.68331 11.1992V8.58411H33.1376V11.1992H8.68331ZM19.9917 9.92698C19.9917 10.4344 20.403 10.8458 20.9105 10.8458C21.4179 10.8458 21.8293 10.4344 21.8293 9.92698C21.8293 9.41951 21.4179 9.00817 20.9105 9.00817C20.403 9.00817 19.9917 9.41951 19.9917 9.92698ZM8.66558 11.7291H33.1552L36.2813 31.5273C36.3096 31.7082 36.1696 31.8722 35.9866 31.8722H23.2138C23.0753 31.8722 22.9551 31.7767 22.9233 31.6425L21.7762 26.7834H20.0446L18.8975 31.6425C18.8657 31.7767 18.7456 31.8722 18.607 31.8722H5.83425C5.6512 31.8722 5.51126 31.7082 5.53953 31.5273L8.66558 11.7291ZM9.50028 18.223C9.62538 18.2032 12.5726 17.7021 14.1982 14.2954C14.3664 13.9428 14.2166 13.5208 13.8646 13.3526C13.5126 13.1844 13.0907 13.3342 12.9225 13.6862C11.6312 16.391 9.38013 16.8094 9.27624 16.8271C8.89246 16.89 8.63095 17.2505 8.69174 17.6349C8.74686 17.9834 9.04724 18.2315 9.38932 18.2315C9.42607 18.2315 9.46282 18.2286 9.50028 18.223ZM32.5333 18.223C32.5707 18.2286 32.6075 18.2315 32.6442 18.2315C32.9856 18.2315 33.286 17.9834 33.3418 17.6356C33.4019 17.2512 33.1411 16.8907 32.7573 16.8278C32.6534 16.8101 30.4024 16.3917 29.1111 13.6869C28.9429 13.3342 28.5209 13.1851 28.169 13.3533C27.8163 13.5215 27.6672 13.9435 27.8354 14.2954C29.4617 17.7014 32.4089 18.2032 32.5333 18.223Z" fill="white"/>
</svg>
