<svg width="44" height="41" viewBox="0 0 44 41" fill="none" xmlns="http://www.w3.org/2000/svg">
<path d="M41.8477 24.7947C41.8217 24.7494 36.3774 15.8765 36.3774 15.8765L35.9108 15.8441L35.8978 15.857C35.833 15.5524 35.7358 15.2478 35.5738 14.9626C34.9386 13.8154 33.7007 13.2191 32.4757 13.3293L32.5016 12.6942C32.5016 12.6942 29.5267 12.1108 25.1713 11.9099V12.2729C25.1713 13.1673 23.8556 13.8932 22.2418 13.8932C20.6214 13.8932 19.3122 13.1673 19.3122 12.2729V11.9034C14.9633 12.1044 11.9884 12.6877 11.9884 12.6877L12.0143 13.3228C10.8995 13.3358 9.82362 13.9126 9.2403 14.9561C9.07827 15.2413 8.98105 15.5459 8.91624 15.8505L8.44311 15.8765C8.44311 15.8765 2.99883 24.7494 2.9729 24.7947L3.51085 25.0929L6.23299 26.5252L9.25975 28.1326L12.6883 21.2819L13.6929 24.3475V29.5001C13.6929 29.5585 13.7124 29.6168 13.7318 29.6687C13.7513 29.7205 13.7902 29.7659 13.8291 29.8048C13.9068 29.8825 14.017 29.9279 14.1402 29.9279H30.3628C30.486 29.9279 30.5961 29.8825 30.6739 29.8048C30.7517 29.727 30.8035 29.6168 30.81 29.5001V24.3475L31.9443 20.8865L35.5673 28.1326L38.594 26.5252L41.3162 25.0929L41.8477 24.7947Z" fill="white"/>
</svg>
